HIERARCHY
ROOT Hips
{
	OFFSET 0 0 0
	CHANNELS 6 Xposition Yposition Zposition Zrotation Yrotation Xrotation
	JOINT LeftThigh
	{
		OFFSET 8.209213 0 -5.776854
		CHANNELS 3 Zrotation Yrotation Xrotation
		JOINT LeftLeg
		{
			OFFSET 0 0 -41.350112
			CHANNELS 3 Zrotation Yrotation Xrotation
			JOINT LeftFoot
			{
				OFFSET 0 0 -38.420225
				CHANNELS 3 Zrotation Yrotation Xrotation
				End Site
				{
					OFFSET 0 -13.011281 -4.889596
				}
			}
		}
	}
	JOINT RightThigh
	{
		OFFSET -8.209213 0 -5.776854
		CHANNELS 3 Zrotation Yrotation Xrotation
		JOINT RightLeg
		{
			OFFSET 0 0 -41.350112
			CHANNELS 3 Zrotation Yrotation Xrotation
			JOINT RightFoot
			{
				OFFSET 0 0 -38.420225
				CHANNELS 3 Zrotation Yrotation Xrotation
				End Site
				{
					OFFSET 0 -13.011281 -4.889596
				}
			}
		}
	}
	JOINT SpineLow
	{
		OFFSET 0 0 4.606742
		CHANNELS 3 Zrotation Yrotation Xrotation
		JOINT SpineMid
		{
			OFFSET 0 0 12.592067
			CHANNELS 3 Zrotation Yrotation Xrotation
			JOINT Chest
			{
				OFFSET 0 0 12.592067
				CHANNELS 3 Zrotation Yrotation Xrotation
				JOINT LeftShoulder
				{
					OFFSET 7.370787 1.382022 9.213483
					CHANNELS 3 Zrotation Yrotation Xrotation
					JOINT LeftArm
					{
						OFFSET 8.937079 0 4.146067
						CHANNELS 3 Zrotation Yrotation Xrotation
						JOINT LeftForearm
						{
							OFFSET 0 0 25.158337
							CHANNELS 3 Zrotation Yrotation Xrotation
							JOINT LeftHand
							{
								OFFSET 0 0 24.597236
								CHANNELS 3 Zrotation Yrotation Xrotation
							}
						}
					}
				}
				JOINT RightShoulder
				{
					OFFSET -7.370787 1.382022 9.213483
					CHANNELS 3 Zrotation Yrotation Xrotation
					JOINT RightArm
					{
						OFFSET -8.937079 0 4.146067
						CHANNELS 3 Zrotation Yrotation Xrotation
						JOINT RightForearm
						{
							OFFSET 0 0 -25.158337
							CHANNELS 3 Zrotation Yrotation Xrotation
							JOINT RightHand
							{
								OFFSET 0 0 -24.597236
								CHANNELS 3 Zrotation Yrotation Xrotation
							}
						}
					}
				}
				JOINT Neck
				{
					OFFSET 0 0 14.741573
					CHANNELS 3 Zrotation Yrotation Xrotation
					JOINT Head
					{
						OFFSET 0 0 11.05618
						CHANNELS 3 Zrotation Yrotation Xrotation
						End Site
						{
							OFFSET 0 0 7.325843
						}
					}
				}
			}
		}
	}
}
MOTION
Frames: 10
Frame Time: 0.01
40.7682557469507 79.1362851810084 -138.591803375145 -165.767798 -68.90644 84.182241 -0.796963 -10.434519 4.545417 18.482412 -3.554699 55.070556 3.885921 -0.12381 3.063406 -5.432215 7.541019 -45.374052 -36.344069 4.040207 49.089327 15.891259 4.045998 2.910486 2.101656 0.152766 -0.462923 5.741585 0.457397 -1.251004 5.741585 0.457397 -1.251004 0.448183 2.542684 -8.068484 86.645807 36.152471 154.872449 -25.76774 -4.573884 91.618374 97.795117 3.547351 24.784876 20.130932 -5.442484 -9.971629 37.340957 82.659345 -27.904251 -44.175524 -26.306192 -107.327276 103.266373 -36.778812 21.068751 1.304173 0.29322 -10.072146 0.983278 0.198483 -7.55476
41.2550941582713 79.2118537608669 -138.677897335913 -164.637011 -71.648164 83.250208 -0.041736 -12.153638 4.649882 18.588392 -3.573061 53.44668 3.89796 0.074791 2.908538 -6.814665 7.789706 -45.617947 -36.592404 4.465309 48.9143 15.510692 4.106962 2.892419 2.150182 0.215364 -0.465368 5.873074 0.629466 -1.25178 5.873074 0.629466 -1.25178 0.20562 2.515907 -8.103174 85.250736 36.259345 156.382348 -26.178469 -6.398663 90.725472 98.170767 3.085507 24.991875 20.105578 -5.237717 -10.048201 49.95356 82.536243 -16.287902 -44.274044 -25.009946 -107.547496 102.593572 -37.295196 21.844614 1.098084 0.52468 -10.323455 0.832704 0.375087 -7.743509
41.6777498761186 79.3028013444429 -138.788240615893 -163.619785 -74.189594 82.400703 1.18833 -13.87914 4.52746 18.523908 -3.080871 51.744872 3.824929 0.165098 2.711553 -7.903711 8.214968 -45.850601 -36.766211 4.798905 48.770043 14.60489 3.853316 2.829169 2.227312 0.291756 -0.468664 6.082516 0.839811 -1.253005 6.082516 0.839811 -1.253005 -0.099817 2.410595 -8.023553 84.03696 36.39845 157.778371 -24.708192 -8.275998 90.609193 98.068429 3.805015 23.552005 19.94492 -5.153588 -10.149327 61.128696 82.131643 -6.019697 -44.21167 -23.91241 -107.801213 101.873255 -37.694452 22.674374 0.915978 0.761068 -10.501244 0.700299 0.555256 -7.876979
42.1522521311118 79.3734219393372 -138.912934836963 -161.603789 -77.096107 80.57099 2.340256 -15.749339 4.067286 18.182899 -2.172916 50.056191 3.789022 0.24872 2.432858 -9.193718 8.731261 -46.07338 -37.174858 5.181089 48.690188 14.350582 3.872377 2.764094 2.22129 0.337074 -0.476121 6.065162 0.964131 -1.269309 6.065163 0.964131 -1.269309 -0.439818 2.375268 -7.748369 83.242926 36.678343 159.095586 -24.810634 -9.50677 90.075656 98.347342 3.557554 23.792419 19.910145 -4.953439 -10.15472 69.421025 81.573726 1.641587 -43.959845 -22.999337 -108.137231 101.22809 -38.034498 23.460574 0.777934 1.074269 -10.695396 0.602457 0.792375 -8.022694
42.6336229196555 79.4345733386892 -139.022759373607 -159.280453 -79.817916 78.465574 4.105089 -17.484593 3.143671 17.440362 -1.012792 48.379854 4.029865 0.350749 2.152732 -10.106528 9.575471 -46.377177 -37.664221 5.390803 48.640866 14.01043 3.814735 2.733202 2.244446 0.404576 -0.477902 6.127265 1.149052 -1.267596 6.127265 1.149052 -1.267596 -0.909245 2.24402 -7.434095 82.737956 37.059241 160.348267 -24.700143 -10.372229 89.691131 98.628725 3.399631 24.007817 19.669464 -4.859665 -10.233517 75.810632 80.985111 7.503751 -43.48452 -22.184011 -108.559857 100.78649 -38.343879 24.045328 0.861921 1.436276 -10.735796 0.671892 1.062456 -8.053468
43.2505132990788 79.4618664041344 -139.122731942372 -153.822614 -82.897725 73.188292 5.854533 -19.225938 1.815297 16.452782 0.224643 46.726396 4.76046 0.525634 2.048869 -11.207349 10.591153 -46.644543 -38.26869 5.418575 48.648109 13.945636 3.823934 2.683505 2.161899 0.438158 -0.460158 5.901383 1.237625 -1.217623 5.901383 1.237625 -1.217623 -1.236788 2.193026 -7.104672 82.551523 37.511081 161.605559 -24.326365 -10.957741 89.40983 98.895217 3.336909 24.163902 19.651283 -4.589871 -10.26984 79.75958 80.495041 11.204291 -42.783233 -21.323501 -109.036606 100.538552 -38.653807 24.356469 0.787952 1.801033 -10.970951 0.6235 1.337142 -8.229873
43.9858632598584 79.4625148153131 -139.228094739786 -140.60359 -85.802203 60.227582 7.96894 -20.758302 -0.016331 15.187071 1.469015 45.134364 6.335569 0.217351 2.293893 -12.06874 11.769197 -47.028619 -38.824684 5.186123 48.627011 14.204102 3.842598 2.603683 2.082033 0.487224 -0.443665 5.682616 1.368771 -1.169909 5.682616 1.368771 -1.169909 -1.995788 1.892818 -6.904839 82.77382 37.9578 162.861179 -23.805097 -11.252364 89.135897 99.016303 3.351683 24.111814 19.412038 -4.455572 -10.386607 82.500835 80.051231 13.666515 -41.913455 -20.215613 -109.537632 100.343199 -39.021977 24.435802 0.743017 2.127948 -11.197071 0.596446 1.58298 -8.399438
44.9006537972058 79.4421403048945 -139.363691828508 -88.833117 -87.820729 8.658471 10.072279 -22.034493 -2.157616 14.283064 2.22539 43.90579 7.78011 -0.21506 2.376667 -12.838064 13.070628 -47.399031 -39.178239 4.640677 48.556419 14.761399 3.882711 2.501245 1.925637 0.512485 -0.421492 5.255176 1.433307 -1.110635 5.255176 1.433307 -1.110635 -2.409083 1.849347 -6.524307 82.481179 38.576047 163.642416 -23.427791 -11.140177 88.604097 99.379496 3.170309 23.818493 19.42599 -4.19902 -10.399808 84.167782 79.783949 15.255403 -40.920201 -19.032767 -110.09076 100.011244 -39.521135 24.452729 0.789321 2.473525 -11.42323 0.638431 1.841157 -8.569303
45.9364099634871 79.3975421454145 -139.564940276819 -27.75499 -86.206611 -52.20621 12.251399 -23.017132 -4.640986 14.078848 1.967677 43.179669 8.828528 -0.568238 2.091785 -13.322736 14.378138 -47.800055 -39.148213 3.754108 48.42973 15.273346 3.877096 2.399812 1.741432 0.524005 -0.40909 4.75172 1.460864 -1.07998 4.75172 1.460864 -1.07998 -2.935827 1.703515 -6.129521 81.94637 39.248248 164.141153 -23.173091 -10.718244 88.026985 99.61187 3.081223 23.216526 19.411054 -3.999177 -10.380962 85.460931 79.628343 16.455157 -39.82269 -17.853368 -110.661587 99.410528 -40.095596 24.651278 1.000569 2.81934 -11.570984 0.804045 2.09646 -8.681129
47.0732731334639 79.3378194415462 -139.922878347816 -11.740782 -83.233603 -68.06118 14.393 -23.626299 -7.294403 14.809974 0.254927 42.82712 8.297374 -0.698639 2.222299 -13.409232 15.738766 -48.171458 -38.727645 2.55155 48.265834 15.507619 3.8778 2.320103 1.520801 0.528316 -0.405632 4.148588 1.468901 -1.075197 4.148589 1.468901 -1.075196 -3.182228 1.638354 -5.674988 80.724707 39.950825 164.192156 -23.245673 -10.247758 87.184972 99.858194 2.875005 22.329389 19.59489 -3.83975 -10.285909 86.656281 79.479909 17.588578 -38.689233 -16.812289 -111.246346 98.669423 -40.678198 25.042926 1.240121 3.08184 -11.674161 0.989226 2.288695 -8.759804
